<svg xmlns="http://www.w3.org/2000/svg" viewBox="0 0 314 314">
    <path fill="#d5dcf1" d="M195.33 253.44s-18.1 8.6-35.7-7.5c-8.7-8 3.4-58.9-14.7-76.4-7.9-7.7-27.9-21.2-19.6-35 8.6-14.2 3.7-31.6 1.2-39.1a1.42 1.42 0 0 1-.2-.6c3.8-4.6 4.6-14.4 4.7-20.8a3.62 3.62 0 0 0-5.8-2.8 17 17 0 0 0-2.4 2.3 34.54 34.54 0 0 1-24.3 11.8 3.4 3.4 0 0 0-1 .1 42.84 42.84 0 0 1-31.2-11.5l-.5-.4a3.88 3.88 0 0 0-6.4 2.7c-.2 5.6.1 13.8 3.2 18.2a39.78 39.78 0 0 0-3.5 9.9c-2.5 12.5 4.3 24.3 4.3 34.4a50.17 50.17 0 0 1-6.1 23.7s-25.4 52.5-25.4 89c0 2.7-16.7 12.7 9.3 18.7 45.9 10.6 63.3 2 87.3 10 5.5 1.8 20.8 5 38.7 4.7a536.58 536.58 0 0 0 76.4-7.3s28.5 6.7 42.9-4c2.9-2.2-14.7-8.7-20-9.3-42.1-5.5-71.2-10.8-71.2-10.8z"/>
    <path fill="#8a94aa" d="M17.53 255.74h280v2h-280v-2z"/>
    <path fill="#eb5c2c" d="M266.63 250.24l-11.3-.2a25.81 25.81 0 0 1-10.3-2.3l-6.1-2.8-7.7-7.2-.1.5h-.2a112.77 112.77 0 0 0 1.8-12.8c1.1-13.3-2.1-21.6-9.2-26.7-4.5-3.2-4.3-13.2-6.5-21.2-2-7.4-2.2-15.4-8.9-25.9-1.9-4.3-7.2-10.4-9.5-14.7-1-1.8-.5-3.4-.6-4.4a33.87 33.87 0 0 1-2.9 3.5l-18.3 6.4-.1.1-5.9 2.2h-3l-4.9-2.2-.5-1 .2 1-18.6-6.5s-.4-.4-1-1.1c-1 2.3-3 6.7-4.9 11.3-9.8 10-11.9 25.9-12.6 32.5-.5 5.6-3.6 12.8-5.3 16.6-1.2 2.7-5.7 7.2-6.7 8.7-3.4 5.3-3.9 9.1-2.9 21.3 1.9 22.1 9.7 37.5 9.7 37.5l1.3 10.9 16 .8 33.9-1.5 33.9 1.5 14.4.4 3.4-4.2c1.4 1.1 1.6 0 2.8.7 4.6 2.8 18.3 5.9 27.1 5.1 8.3-.7 16.9-2.6 19.1-7 5.5-10.7 1-17.9-5.6-19.3z"/>
    <path fill="#eea65b" d="M223.43 263.14c-2.6-7.9-17.9-5.7-19.1-5.4-2.6.7-5.9 2.3-7 1.4a13 13 0 0 0 .2 3.4 5.63 5.63 0 0 1-1.6.2c-1.7-.3-2.8-1.7-6.3-1.9s-3.9.9-6.7 2.4c-1.8 1-7.6-3.1-10.4 3.3-1 2.4.4 9.6.4 9.6a5.2 5.2 0 0 0 2.3 3c1.5.8 4.1.8 6.8.3 1.3-.3 2-1.2 2.7-1.2s1.2 1 2.4 1.3c5.5 1.4 8.1-1.3 8.1-1.3s1.9 1.8 5.8 1.1c2.5-.5 2.8-2.2 2.8-2.2l.4-2.3a19.44 19.44 0 0 0 7.6 0l1.7-.4s6.8 2.8 8.7-1c.6-.9 3.3-3.8 1.2-10.3zm-81 3.9a26.33 26.33 0 0 0 1.1-7.8c-1.1.9-4.4-.7-7-1.4-1.3-.3-16.5-2.5-19.1 5.4-2.1 6.5.6 9.3 1.1 10.3 1.9 3.8 8.7 1 8.7 1l1.7.4a18.43 18.43 0 0 0 8.1-.1l.3-.1a27.32 27.32 0 0 0 4.5-6.4c.2-.5.4-.9.6-1.3z"/>
    <path fill="#1f1f3f" d="M124.93 270.64a.76.76 0 0 1-.4-.1 1 1 0 0 1-.6-1.3 6.34 6.34 0 0 0 0-4.5 1.044 1.044 0 1 1 2-.6 8.27 8.27 0 0 1 0 5.8 1 1 0 0 1-1 .7zm7.9.8a.6.6 0 0 1-.4-.1 1 1 0 0 1-.5-1.3c1.2-2.6.5-4.2.2-4.8a.49.49 0 0 1-.1-.3 1.012 1.012 0 0 1 1.9-.7.1.1 0 0 0 .1.1 6.78 6.78 0 0 1-.2 6.5 1.22 1.22 0 0 1-1 .6zm83.1-.8a.87.87 0 0 1-.9-.6 7.31 7.31 0 0 1 0-5.8 1.044 1.044 0 1 1 2 .6 5.85 5.85 0 0 0 0 4.5 1 1 0 0 1-.6 1.3h-.5zm-7.9.8a1 1 0 0 1-.9-.6 7.35 7.35 0 0 1-.2-6.5c0-.1 0-.1.1-.1a1 1 0 0 1 1.3-.6 1 1 0 0 1 .6 1.3l-.1.3a4.9 4.9 0 0 0 .2 4.8 1 1 0 0 1-.5 1.3.9.9 0 0 1-.5.1z"/>
    <path fill="#eea65b" d="M177.63 213.54c4.6-.7 6.9-9.3 10.9-7.8a27.89 27.89 0 0 0 7.3 1.7s1.9-4.9 5.1-5 6.9 3.3 6.9 3.3l-2.8 12-4.2-6.8s-4.3 5.3-5.7 5-3.6-2.4-5.2-2.8-16.8 9.2-16.3 7.5 4-7.1 4-7.1zm-.9 25.5c3.5-.2 5.4-5.8 8.4-4.5a23.24 23.24 0 0 0 5.5 1.6s1.5-3.2 4-3 5.2 2.7 5.2 2.7l-2.4 7.9-3.1-4.8s-3.4 3.3-4.4 2.9-2.7-1.9-4-2.3-13 5-12.6 3.9c.6-1 3.4-4.4 3.4-4.4zm-11.2 4.6c-3.5-.1-5.4-5.8-8.4-4.5a23.24 23.24 0 0 1-5.5 1.6s-1.5-3.2-4-3-5.2 2.7-5.2 2.7l2.4 7.9 3.1-4.8s3.4 3.3 4.4 2.9 2.7-1.9 4-2.3 13 5 12.6 3.9l-3.4-4.4zm.3-30.9c-5-.3-7.8-8.8-12.1-7l-7.8 2.3s-2.2-4.8-5.7-4.6a11.33 11.33 0 0 0-5.4 1.5l1.6 14.3 4.3-7.2s1.9 3.6 2.4 2.3c.7-1.7 3.1 2.5 3.9 2.2 1.5-.4 3.8-2.7 5.5-3.3.9-.3 11.2 8.5 9.1 4.3-1.2-2.4 9.1 2.7 8.8 1.8-.4-1.6-4.6-6.6-4.6-6.6zm25.1-75.3l-14.2 5-.1.1-5.9 2.2h-3l-4.9-2.2-.5-1 .2 1-10.2-3.6c-2 2.9-4.7 3.8-7.2 12.2-1.1 3.8 5.7.9 6.2 2s-6 17.7-.6 13.4c1.3-1.1 4.1-3.1 6.1-4.5a2.13 2.13 0 0 1 3.2 1c1.5 4.6 4.6 13.5 6.1 15 2.1 2 4.3-8 5-3.2.5 3.1 2.7-2.6 4.1-7a1.9 1.9 0 0 1 3.5-.3l2.9 5.1s0-12.1 3.1-14c1.1-.7 5.7 8.1 6.4 6.7.3-.7 0-4-.5-7.4a3.57 3.57 0 0 1 5.2-3.7c3 1.6 5.6 2.6 3.7.4-2.8-3.6-4.5-13.9-8.6-17.2zm43.8 116.1c.5.2 10.6 5.3 10 6s-2.2 1.6-2.4 2.2 3 4.4 3.7 5.4-1.3 2-2.4 2.6-5.6-.4-3.2 2a20.07 20.07 0 0 1 3.7 5.3s-1-.1-2.9-.4-10.8-2.5-12.3-3.1a40.89 40.89 0 0 1-6.4-3.7c-1.3-1-6.7-7.7-6.7-7.7s-2.4-5.2-2.5-6.4a27.25 27.25 0 0 1 .6-6.4l5.5-4s.7-1.4 3.6.9 9.7 7.2 9.7 7.2l2 .1z"/>
    <path fill="#a03a22" d="M169.53 152.14s9.7-.7 11.5-2.9c8.9-10.4 17.5-12.9 17.5-12.9l-1.3-2.7-27.9 5.3-25.7-5.2v2.9s6.7 2.3 15.8 12.7c1.9 2.3 9.9 2.8 10.1 2.8"/>
    <path fill="#eb5c2c" d="M210.43 96.44c-.2 9.7-1.5 19.7-6.5 28.1-2.2 3.8-3.1 6.6-6.7 9.3-3 2.2-9.7.9-14.5 4.8 0 0-6.7 5.7-12.5 5.4-5.6-.4-11.2-5-11.2-5-2.8-2.7-9.5-3.2-13.6-4.6-4.8-1.8-12.5-16.6-13-19.3l-1.3-5c-1.7-3.9-2-8.2-4.1-12.1a22.47 22.47 0 0 1-3.1-7c-1.1-5.4-2.4-10.9-3.4-16.3-1.7-8-5-21.1.4-27.9 0 0 6.1-1.4 16.9 10 5.2 4.6 10.4 13.4 16.9 15.9a29.75 29.75 0 0 0 3.5-4.5c1.5 1.2 4.3 2.9 6.5 2.5 1.5 0 2.6-1.4 3.7-1.4.9 0 2.4.9 2.8.9 3.9 1.6 3.7-1.8 6-1.6 2.2 0 2.2 4.3 7.1 1.6l2.4-.2c6.1-6.4 18.4-22.9 28.9-20.6 9.3 2.3-1.7 38.3-4.8 47.1"/>
    <path fill="#1f1f3f" d="M220.03 53.54c-1.9-7.7-10.8-4.8-15.6-1.6a62.66 62.66 0 0 0-11.4 10.4c-1.5 1.6-3 3.4-4.6 5.2l-1.9 2.2c.2-.2-1.3.2-1.9.2-1.3.2-2.2 1.2-3.5.7a10 10 0 0 1-1.9-1.6 3.15 3.15 0 0 0-3.9 0c-.9.9-1.5 1.6-3 1.2a13.76 13.76 0 0 0-3.4-1.2c-1.1-.2-2 .5-2.8.9-2.2 1.4-5.2-.5-6.9-1.8a1.16 1.16 0 0 0-1.7.2 33.75 33.75 0 0 1-2.8 3.8c-5-2.5-8.6-7.2-11.9-11.3a94.09 94.09 0 0 0-10.2-9.8 21.58 21.58 0 0 0-5.8-3.8c-2-.9-3.5-.7-5.6-.7-1.7 0-2.4 2.5-3 3.8a22.25 22.25 0 0 0-1.3 7.7c0 5.4 1.1 10.7 2.2 16.1l1.9 9.8c.8 3.6 1.1 7.3 2.6 10.7s3.4 6.4 4.5 10a70.79 70.79 0 0 1 2.2 7.5 50.72 50.72 0 0 0 2.6 7.5c2.4 4.8 5.2 9.8 8.9 13.8 3.5 3.8 9.5 3 13.9 5.2 4.3 3 8.9 6.1 14.2 6.8 5.4.5 10.4-3.2 14.9-6.6 3.5-1.6 7.5-1.6 11.2-2.9s5.8-5.4 7.5-8.4a60.45 60.45 0 0 0 6-14.1 72.45 72.45 0 0 0 1.8-13.1 14.73 14.73 0 0 1 .5-2.6 151.54 151.54 0 0 0 6.1-20.9c1.7-7.9 3.7-16.2 2.1-23.3zm-1.9 9.5a111.87 111.87 0 0 1-2.2 13.1 188.6 188.6 0 0 1-5.6 19.5c-.4.2-.8 3-.9 4a80.66 80.66 0 0 1-1.5 11.9 50.06 50.06 0 0 1-5.6 13.8c-1.9 3.4-3.7 7.5-8 8.6-1.9.5-3.7.7-5.4 1.1a.92.92 0 0 0-1.5-.7c-1.7 1.1-5.4 3.8-5.4 3.9-3.5 2.5-7.5 4.8-11.7 4.6-3.1-.2-6.3-2-8.7-3.6-.8-.4-3-2.2-3.4-2.3-1.5-1.1-2.8-2-4.3-3-.8-.5-1.5.2-1.5 1.1-1.5-.4-2.8-.5-4.1-.9-3.9-.9-6-3.8-8.2-7a54.31 54.31 0 0 1-7.6-16.6c-.5-2-1.3-3.9-1.9-6.1a26.86 26.86 0 0 0-3.4-8.2c-1.9-3-2.4-6.3-3.1-9.7-.8-3.2-1.5-6.6-2-10-.9-5-2-9.8-2.6-15-.4-4.5-.4-9.5 2.2-13.4a10.61 10.61 0 0 1 3.5.2 14.21 14.21 0 0 1 5 3c2.6 2 4.8 4.3 7.2 6.4 5.6 4.8 11.4 15.4 17.7 16.5a19.12 19.12 0 0 0 3.7-4.3 12.15 12.15 0 0 0 5.4 2.2 4.62 4.62 0 0 0 3-.7c1.7-.9 2-.7 3.7.2a4.09 4.09 0 0 0 4.5-.2c.5-.4 1.1-1.2 1.9-1.2.5 0 1.5 1.2 1.9 1.4a4.47 4.47 0 0 0 4.3.7l2.2-.7a3.13 3.13 0 0 0 1.9-.4c3.1-3.4 6.1-7 9.3-10.2 3.5-3.8 7.6-7.5 12.7-9.5 3-1.2 6.9-1.6 8.2 1.8 1 2.9.7 6.4.3 9.7z"/>
    <path fill="#eea65b" d="M197.43 98.04a4.76 4.76 0 0 0-3.7-3.4c-1.5-.4-3 0-4.3-.2.2-1.2 1.1-5.2-1.7-4.8-1.5 0-3 4.3-3.9 5.4-1.5 2.2-2.4 1.6-2.6-.9-.4-2.5.9-5.9-1.1-6.4-1.5-.2-2.6 2.7-3.1 4.5-.1.7-.8 1.3-.8-1.9l-1.4 2.6c-1.1 9.6-4.4 7.9-4.4 7.9h-1s-3.7 1.7-4.8-7.9l-1.3-2.3c-.1 1.1-.3 1.9-.6 1.4-.4-1.8-2.4-5.4-3.5-4.8-2 1.8-.4 4.3-.9 6.8s-1.3 3-2.6.7c-.8-1.1-2-5.4-3.5-5.6-2.6-.4-1.9 3.6-1.9 4.8a29.55 29.55 0 0 0-4.3-.2 5.1 5.1 0 0 0-3.9 3.2c-.2.4 0 13.8 12.3 14a12.66 12.66 0 0 0 5.2-.9c1-.3 1.8-1.1 2.7-.7l3.5-2.9 2.8-5.3h2.7l2.9 5.3 3.7 3h.1c1.7.7 4.1 2 6.1 2 6.3 0 11.9-2.5 13.8-8.2.5-.2-.3-4.8-.5-5.2z"/>
    <path fill="#fff" d="M145.73 100.04s7.8-.7 9.9.4a9.24 9.24 0 0 1 4.6 5.9 17.4 17.4 0 0 1-3.1.9 32.22 32.22 0 0 1-3.9.4c-6.4-.8-7.5-7.6-7.5-7.6zm49.1 1.1s-7.6-1.1-9.9-.2c-4.3 1.8-5 6.3-5 5.7 0 0 2.4.9 3 1.1a13.84 13.84 0 0 0 3.9.5c6.5-.3 8-7.1 8-7.1zm-14.5 5.3c.5.2 2.4.9 3 1.1a12.07 12.07 0 0 0 3.4.5h.4c5.6-.2 7.5-5.9 7.6-6.8a42.59 42.59 0 0 0-6.5-.5 9.25 9.25 0 0 0-3 .4 8.3 8.3 0 0 0-4.9 5.3z"/>
    <path fill="#1f1f3f" d="M155.83 99.64c-.9-.4-2.4-.5-5-.5s-5 .2-5.2.2h-.7v.7s1.5 7.3 8.2 8a39.07 39.07 0 0 0 4.3-.2c.5-.2 3.5-.9 3.5-.9s-.1-5.5-5.1-7.3zm1.1 6.7a11.08 11.08 0 0 1-3.5.4 6.91 6.91 0 0 1-5.6-3.6 6.59 6.59 0 0 1-1.1-2.5c1 0 2.4-.2 4.3-.4h1.2c-.2 1.4-.5 5.1 1 4.8s1.7-3 1.8-4.4a.35.35 0 0 1 .2.1 8.32 8.32 0 0 1 4.1 4.8 9.38 9.38 0 0 1-2.4.8zm38.3-6c-.2 0-3.9-.5-6.9-.5a12.45 12.45 0 0 0-3.4.4 9.45 9.45 0 0 0-5.2 5.4l-.3 1.6 3.7 1.2a13.2 13.2 0 0 0 3.5.5h.6c6.7-.4 8.6-7.7 8.6-7.7l.2-.7-.8-.2zm-2.6 3.8c-1.1 2.9-6 3.4-6.1 3.4a14 14 0 0 1-3.1-.5c-.4-.2-1.3-.5-2.2-.9a8.16 8.16 0 0 1 4.3-4.5c0 1.4.3 4.1 1.7 4.3s1.3-3.2 1.2-4.7a43.49 43.49 0 0 1 5.7.4 13.7 13.7 0 0 0-1.5 2.5z"/>
    <path fill="#eea65b" d="M183.93 127.54v1a32.87 32.87 0 0 1-3 6h.9a7.6 7.6 0 0 0 1.1-.4 20.22 20.22 0 0 0 6.4-6.7c.7-1.5 1.7-3.3 1.5-4.9-3 .9-6 1.9-6.8 2.1a7.15 7.15 0 0 1-.1 2.9zm-26.4-9.1v-.1h-.1zm-.2 12.8a14.17 14.17 0 0 1-.8-1.8 9.42 9.42 0 0 1-.4-1c0-.5-1.2-4.7-1.2-4.7s-2.4-.7-5.1-1.6a12.78 12.78 0 0 0 1.5 4.4 19.74 19.74 0 0 0 6.3 7 5.39 5.39 0 0 0 1.3.7l-.3-.6a26 26 0 0 1-1.3-2.4z"/>
    <path fill="#fff" d="M130.23 96.84c3.1-2.9 5-9.1 5.8-14.1-.2.7 5.4.9 8.6-2.5 2.2-2.3.9-4.1-.4-7-3.5-7.3-9.5-13.1-15.3-18.4-1.5-1.4-3-5-5.6-4.1-2 .7-1.9 6.6-1.5 8.4 2.3 15.3 8.4 37.7 8.4 37.7zm77.3-1.6a26.14 26.14 0 0 1-6.7-13.6c0 .7-5.4.7-8.4-2.7-2-2.3-.8-3.9.8-6.4 3.9-6.6 10.1-11.8 16-16.8 1.7-1.2 3.4-3 5.8-2 2 .9 1.5 4.8 1.1 6.4a349.79 349.79 0 0 1-8.6 35.1z"/>
    <path fill="#ec662b" d="M207.83 71.94c-4.1 1.1-8.6 3.4-10.5 7.2-.9-4.5 3.4-9.6 7-12a1.06 1.06 0 0 0-1.1-1.8c-4.5 3.2-9.1 9.3-7.8 14.9a1 1 0 0 0 1.2.7l-.1.6c-.2 1.2 1.9 1.8 2 .5.9-4.5 5.6-7 9.9-8a1.092 1.092 0 0 0-.6-2.1zm-74.6-4.8c-1.1-.7-2 .9-1.1 1.8 3 2.1 6.5 6.3 7 10.2-1.9-3.8-6.3-6.1-10.5-7.2a1.03 1.03 0 1 0-.5 2c4.3 1.1 8.9 3.6 9.9 8a2.65 2.65 0 0 0 3.1 0c1.4-5.5-3.4-11.8-7.9-14.8z"/>
    <path fill="#1f1f3f" d="M143.43 70.14c-3.1-5.4-7.6-9.8-12.1-14.1l-4.8-5.4a3 3 0 0 0-3.9-.2c-2.4 2.2-1.9 6.8-1.5 9.7.8 5.6 1.9 10.9 3.1 16.3 1.5 7 3.1 13.8 5 20.6a.52.52 0 0 0 .5.5c.2.2.5 0 .9-.2 3.5-3.4 5-8.6 5.8-13.4 2.2.4 6-1.2 6.9-1.8 5.6-3.1 2.6-8 .1-12zm-1.3 11.1a10.38 10.38 0 0 1-3.1 1.1 5.57 5.57 0 0 0-2 .2.9.9 0 0 0-1.7 0c-.8 4.3-1.9 9.1-4.6 12.5a330.34 330.34 0 0 1-7.8-35.5c-.4-2-.5-10.7 3.1-7l3.5 4.1c1.7 1.6 3.4 3.4 5 5a48.91 48.91 0 0 1 8.7 12.1 15.14 15.14 0 0 1 1.3 3c1 2-.9 3.6-2.4 4.5zm70.8-28.8c-1.7.2-3.1 1.4-4.3 2.5-2.2 2-4.5 3.8-6.7 5.7a54.84 54.84 0 0 0-10.2 12.5c-2.2 3.8-.4 6.8 3.5 8.6a13.23 13.23 0 0 0 5 1.1 25.9 25.9 0 0 0 6.7 12.9 1.49 1.49 0 0 0 .9.2.63.63 0 0 0 .5-.5c2-6.4 3.7-13.1 5.4-19.7 1.3-5.4 2.6-11.1 3.4-16.6.3-3.1 0-6.9-4.2-6.7zm2.4 6.2c-.8 8-3.1 16.3-5.2 24.2-.9 3.6-1.9 7.2-3 10.6a25 25 0 0 1-5.6-12.1.9.9 0 0 0-1.7 0c.2-.5.4-.4-.4-.2a7.8 7.8 0 0 1-2.2-.4c-2-.5-5-2-5.2-4.3-.2-1.6 1.7-3.8 2.6-5.2a59.3 59.3 0 0 1 4.3-5.6 98.23 98.23 0 0 1 8.9-8.2 24 24 0 0 1 4.3-3.2c3.4-1.8 3.4 2.7 3.2 4.4z"/>
    <path fill="#686868" d="M210.83 102.84c.2-1.4-3.7 4.1-3.7 4.1a12.88 12.88 0 0 1-1.7 1.6 43.29 43.29 0 0 1-16.6 8.3 25.49 25.49 0 0 1-4.2.8l-2.5.1-2.4-6.8-5.5-4.5-2.9-5.3h-2.7l-2.8 5.3-5.5 4.5-2.7 7.5-.1-.7-2.7-.1a25.49 25.49 0 0 1-4.2-.8 40 40 0 0 1-16.6-8.3c-.6-.5-1.2-1.1-1.7-1.6 0 0-4-5.5-3.7-4.1a67.94 67.94 0 0 0 15.7 33.2l18.6 6.5-.2-1 .5 1 4.9 2.2h3l5.9-2.2.1-.1 18.3-6.4c-.4-.1 12-12.8 15.4-33.2zm-63.8 27.9c-.1 0-5.9-9.9-6.3-10.7s13.9 3.7 14.2 3.8c0 0 1.2 4.2 1.2 4.7a9.42 9.42 0 0 0 .4 1 14.17 14.17 0 0 0 .8 1.8 24.2 24.2 0 0 0 1.2 2.3l.5 1.1c-2.1-.7-11.9-4-12-4zm33.5 4.1c.8-.4 3.3-5.9 3.4-6.4v-1a10.07 10.07 0 0 0 .1-3c1.8-.5 13.9-4.4 14.4-4.4.8 0-5.3 10.5-5.5 10.5 0 .2-11.5 4-12.4 4.3zm-16-42c1 9.6 4.7 7.9 4.7 7.9h1s3.3 1.7 4.4-7.9l3-5.4 4.2-16.2-3.9-.8-4.2-.8a21 21 0 0 0-7.9 0l-4.6.9-3.9.8 4.2 16.2z"/>
    <path fill="#1f1f3f" d="M210.43 101.44c-.9-.4-.8.5-2.5 2.7l-1.7 2.2a21.1 21.1 0 0 1-1.5 1.5 42.31 42.31 0 0 1-16.3 8.1 31 31 0 0 1-4 .8l-1.8.1-2.2-6.4-5.6-4.6-2.4-4.5c1.3-.9 2.5-3.2 3.1-8.1l3-5.4 4.5-17.4-9.2-1.8a19.36 19.36 0 0 0-8.3 0l-4.6.9-5 1 4.5 17.4 2.9 5.2c.6 5.5 2.1 7.7 3.6 8.5l-2.2 4.3-5.6 4.6-2.3 6.4-2.3-.1a17.6 17.6 0 0 1-4-.8 40.31 40.31 0 0 1-18.5-11.9c-1.7-2.2-2.3-2.8-3.2-2.4a1.19 1.19 0 0 0-.7 1.3c3.4 20.5 14.5 33.3 15 33.8a.52.52 0 0 0 .4.2l18.6 6.5v-.1l5.2 2.3h3.4l6.4-2.4.1-.1 17.9-6.3.4-.2c.5-.5 12-13.4 15.3-33.9a.92.92 0 0 0-.4-1.4zm-25.3 23.2a36.43 36.43 0 0 0 11.5-3l-5 8.2-8.8 3 .1-.1.4-.7a12.37 12.37 0 0 0 1.8-7.4zm-11-32.8c-.5 0-1.1-.1-1.8-.1q.75-1.5 1.5-3.3l.9.6.7.4-1.3 2.4zm-4-.2h-1a37.12 37.12 0 0 1-1.9-4 8.72 8.72 0 0 1 2-.2v.1h.5v-.1a7.88 7.88 0 0 1 2 .2 27.8 27.8 0 0 1-1.6 4zm-.5-6.2a6.73 6.73 0 0 0-3 .3 1.85 1.85 0 0 1-.2-.7 9.79 9.79 0 0 1 2.7-.4v.1h1v-.1a9.79 9.79 0 0 1 2.7.4 1.85 1.85 0 0 0-.2.7 6.83 6.83 0 0 0-3-.3zm0-8.9h-1.1v.1a12.25 12.25 0 0 0-1.9.2 8.73 8.73 0 0 0-2.2.5l-.1-.5a21.47 21.47 0 0 1 5.5-.6 20.36 20.36 0 0 1 5.3.6l-.1.5a18.92 18.92 0 0 0-2.3-.5c-.7-.1-1.3-.1-1.9-.2v-.1h-1.2zm-2.9 2.2c1-.1 1.9-.2 2.8-.2s1.8.1 2.8.2a8 8 0 0 1 2.1.5c-.3 1.3-.6 2.6-1 3.9a11.92 11.92 0 0 0-3.8-.5 11.62 11.62 0 0 0-3.8.5c-.4-1.3-.7-2.7-1-3.9a6.69 6.69 0 0 1 1.9-.5zm9.6 9l-.6-.4a5.58 5.58 0 0 1-.8-.5.76.76 0 0 0-.4-.2l.2-.6.9.5a10.54 10.54 0 0 1 1.1.7zm1.6-16.3l2.7.5-1.2 4.5a21.16 21.16 0 0 0-2.1-1.1c.3-1.7.5-3.1.6-3.9zm-1 6a12.81 12.81 0 0 1 2 1.1l-.1.5-.6-.3a9.14 9.14 0 0 0-1.4-.7 3.54 3.54 0 0 1 .1-.6zm.3 3l1.1.6-1.1 4.1-.7-.4a10.91 10.91 0 0 1-1.1-.6l-.1-.1c.4-1.4.8-2.7 1.1-4a5.9 5.9 0 0 1 .8.4zm-11.2-9.9a18.93 18.93 0 0 1 7.5 0l2.4.5c-.1.7-.3 2-.5 3.6a19.83 19.83 0 0 0-5.1-.6h-1.4a19.83 19.83 0 0 0-5.1.6 26.37 26.37 0 0 1-.5-3.6l2.7-.5zm-7.4 1.5l2.7-.5q.15 1.2.6 3.9a10.34 10.34 0 0 0-2.1 1.1zm1.8 7l-.1-.5a12.81 12.81 0 0 1 2-1.1l.1.6-1.4.7zm.5 2l1-.6.9-.5c.3 1.3.7 2.7 1.1 4l-.1.1a10.91 10.91 0 0 1-1.1.6l-.7.4-1.1-4zm2.5 6.3l-.6.4-.3-.6 1.1-.7.9-.5.2.6a.76.76 0 0 1-.4.2zm.4 2.1l.7-.4.9-.6a31.33 31.33 0 0 0 1.5 3.2c-.7 0-1.4.1-1.8.1l-1.3-2.3zm1.8 4.4l4-.2 3.9.1c-.7 4.8-2 6.1-2.7 6.1h-.1l-.1-.1h-1.5l-.2.1h-.2c-1.2.1-2.4-1.5-3.1-6zm-20.9 41.3c-1.4-1.5-10.1-12.6-13.8-29.5.4.6 5 7.5 19.3 12.2a21.78 21.78 0 0 0 4.4.8l1.7.1-.8 2.3a9.36 9.36 0 0 0-.4 1.6h-.1c-6.7-.1-14.5-4.3-14.6-4.3a1.06 1.06 0 0 0-1.2.2.91.91 0 0 0-.1 1.2l7 11.4a1 1 0 0 0 .5.4l11.6 3.9h.1l2.7 5.3-16.3-5.6zm12.2-2.5l.2.4-9.5-3.2-5-8.2a34.59 34.59 0 0 0 12.2 3.1 13.27 13.27 0 0 0 2.1 7.9zm19.1 9l-5.3 2h-2.6l-4.3-1.9-5-10.1-.2-.1a11 11 0 0 1-1.2-9.8l3.6-10.1 5.5-4.5 2.6-5h1.5l2.7 5 5.5 4.5 3.8 10.9a9.18 9.18 0 0 1-1 8.2l-.5.7-1.1 2.2a1.61 1.61 0 0 0-.4.7l-3.6 7.3zm18.5-6.5l-15.7 5.5 2.7-5.3 11.1-3.7a1 1 0 0 0 .5-.4l7-11.4a1 1 0 0 0-.1-1.2 1.06 1.06 0 0 0-1.2-.2c-.1 0-7.5 4-14 4.3l-.2-.7-1.1-3.1 1.2-.1a32.17 32.17 0 0 0 4.4-.8 41.71 41.71 0 0 0 17.1-8.5c.7-.6 1.3-1.2 1.8-1.7a282844.74 282844.74 0 0 0 .2-.2c-3.9 16.6-12.4 26-13.7 27.5z"/>
    <path fill="#eea65b" d="M169.63 266.64c-2.7-6.4-8.6-2.3-10.4-3.3-2.8-1.5-3.2-2.6-6.7-2.4s-4.6 1.6-6.3 1.9c-.5.1-2.6-.7-3.7-.3a6.69 6.69 0 0 0-4.9 5.8 50.48 50.48 0 0 0 .1 5.5l.6 3.2s.3 1.7 2.8 2.2c3.9.7 5.8-1.1 5.8-1.1s2.6 2.7 8.1 1.3c1.2-.3 1.7-1.3 2.4-1.3s1.4.9 2.7 1.2c2.7.5 5.3.6 6.8-.3a4.73 4.73 0 0 0 2.3-3s1.4-7 .4-9.4zm-17.3 3.5c-.6.4-.9 3.8.2 5.3"/>
    <path fill="#1f1f3f" d="M152.53 276.44a1.23 1.23 0 0 1-.8-.4 7.76 7.76 0 0 1-.7-5.3 2.15 2.15 0 0 1 .9-1.4 1 1 0 0 1 1.4.4 1.26 1.26 0 0 1-.2 1.3 5.69 5.69 0 0 0 .3 4 1 1 0 0 1-.3 1.4h-.6z"/>
    <path fill="#eea65b" d="M162.43 270.84c-1 1.3-.6 4 0 5.2"/>
    <path fill="#1f1f3f" d="M162.43 277.04a1.05 1.05 0 0 1-.9-.5c-.8-1.5-1.2-4.5.1-6.2a1 1 0 1 1 1.6 1.2c-.7.9-.4 3.1.1 4.1a1 1 0 0 1-.4 1.4.83.83 0 0 0-.5 0z"/>
    <path fill="#eea65b" d="M142.93 270.14c-.6 1-.5 3.2 0 5.5"/>
    <path fill="#1f1f3f" d="M142.93 276.64a1 1 0 0 1-1-.8c-.3-1.3-.9-4.4.1-6.2a1.03 1.03 0 1 1 1.8 1c-.4.6-.5 2.3.1 4.7a1 1 0 0 1-.8 1.2.2.2 0 0 1-.2.1z"/>
    <path fill="#eea65b" d="M189.83 270.14c.6.4.9 3.8-.2 5.3"/>
    <path fill="#1f1f3f" d="M189.73 276.44a1.42 1.42 0 0 1-.6-.2 1 1 0 0 1-.3-1.4 5.69 5.69 0 0 0 .3-4 .93.93 0 0 1-.2-1.3 1.11 1.11 0 0 1 1.4-.4 2.15 2.15 0 0 1 .9 1.4 7.76 7.76 0 0 1-.7 5.3.8.8 0 0 1-.8.6z"/>
    <path fill="#eea65b" d="M179.83 270.84c1 1.3.6 4 0 5.2"/>
    <path fill="#1f1f3f" d="M179.83 277.04a.9.9 0 0 1-.5-.1 1 1 0 0 1-.4-1.4c.5-1 .7-3.2.1-4.1a1 1 0 1 1 1.6-1.2c1.3 1.7.8 4.8.1 6.2a1.07 1.07 0 0 1-.9.6z"/>
    <path fill="#eea65b" d="M199.33 270.14c.6 1 .5 3.2 0 5.5"/>
    <path fill="#1f1f3f" d="M199.33 276.64h-.2a1.1 1.1 0 0 1-.8-1.2c.6-2.4.5-4.1.1-4.7a1.03 1.03 0 1 1 1.8-1c1 1.7.4 4.9.1 6.2a1.2 1.2 0 0 1-1 .7zm-19.7-150.3a20.74 20.74 0 0 0-2.6-9.4v-.5l-5.6-4.3-.2-.1a2.86 2.86 0 0 0-3.3 0l-.2.1-5.6 4.3v.6c-.7 1.4-2.7 5.6-2.7 9.2h-.1l.2 2.5a10.36 10.36 0 0 0 3 6.6s2.1 1.8 2.8 1.8h.3a2.4 2.4 0 0 0 1.6-1.7q.9 1.8 2.1 1.8a2.77 2.77 0 0 0 2.1-1.4 3.1 3.1 0 0 0 2.2 1.6h.1c.7 0 2-1.6 2-1.6l1.2-1.6a8.92 8.92 0 0 0 1.8-4.1zm-17.2-6.4l.3 4.1-1.7 1.2a18 18 0 0 1 1.4-5.3zm-1.4 8.8l-.1-1.7 1.7-1.2v7.6a10.55 10.55 0 0 1-1.6-4.7zm5.2 6.1c-.6 1.9-2.2-.9-2.2-.9v-8.6h2.2v7.2a5.91 5.91 0 0 1 0 2.3zm.5-11.6h-2.2l-.3-6 2.6-2.1zm2.2-9.4h1.4l.2 9.5-.8.4-.8-.4v-9.5zm1.8 21.1a2.5 2.5 0 0 1-1.1 1 1.49 1.49 0 0 1-.9-1c-.1-.7-.2-5.5-.2-9.1a2.8 2.8 0 0 0 2.2 0v9.1zm1.6-19.7l2.7 2.1-.3 5.9h-2.2zm2.7 12.8c0 1.1-.1 3.5-.1 5a2.55 2.55 0 0 1-1.9 2.4l-.2-.4v-7.5l-.2-2.2h2.4v2.7zm1.8-8.3a19.26 19.26 0 0 1 1.3 5.5l-1.5-1.1zm.9 10.3a7.43 7.43 0 0 1-1.5 3.4v-.5l.1-6.2v-1.1l1.8 1.3-.4 3.1zm96.6 125.7a11.48 11.48 0 0 0-7.7-6 29.84 29.84 0 0 0-6.3-.4c-7.8 0-18.4 0-28.4-11.9a103.79 103.79 0 0 0 1.6-11.9c1.1-13.3-1.9-22.1-9.6-27.6-2.7-2-3.6-7.1-4.5-12.6-.5-2.7-.9-5.5-1.6-8.1-.5-1.8-.9-3.6-1.3-5.6-1.2-5.9-2.6-12.5-7.8-20.6a9 9 0 0 0-2-2.3c-2.8-5.1-6.1-10-8.5-15.2-.4-1.1-2.3-.2-1.7 1.1 3.2 7.1 7.7 13.5 10.6 20.6a89 89 0 0 1 2.1 9.5c.1.8.2 1.8.3 2.8 0 .4.1.7.1 1 .3 2.3.5 4.5.3 4.5-.3 12-2.1 27.5-4.9 37.5-.4 1.5-1.1 3.7-2 6.1-2.9 8.6-7.2 21.7-7.2 32.5a71.55 71.55 0 0 0 .5 9.3l-.3.6a12.21 12.21 0 0 0 .1 2.7h-.3a5.85 5.85 0 0 1-1.5-.6 11.69 11.69 0 0 0-4.9-1.3h-.8a7.73 7.73 0 0 0-4.7 1.5c-.5.3-1 .6-1.7 1h-.3a11.55 11.55 0 0 1-1.6-.2 13.57 13.57 0 0 0-2.9-.3 6.9 6.9 0 0 0-3.2.8c-.3-5.8-.6-12.8-.7-19.9 0-2.3 0-4.5-.1-6.6-.1-8.9-.2-16 .1-17.7a7.75 7.75 0 0 0 .1-.9c.6-5.5 1.1-7.1 1.4-7.4 3.1-4 3.7-13.7 3.9-21.6a6.22 6.22 0 0 1 .1-1.6 1 1 0 0 0-.8-1.1c-.2.1-.3.2-.4.1h-.1a.88.88 0 0 0-.7.9 14.89 14.89 0 0 1-.1 1.7c-.1 4.1-.4 16.4-3.5 20.4-.8 1-1.3 4.1-1.8 8.4 0 .4-.1.7-.1.9-.3 1.9-.2 8.7-.2 18.1 0 2.1 0 4.3.1 6.6.1 7.8.4 15.6.8 21.7a7.68 7.68 0 0 0-1 1.8c-1.1 2.6.2 9.4.4 10.2a6 6 0 0 0 2.8 3.7 8 8 0 0 0 3.8.8 16.7 16.7 0 0 0 3.7-.4 5.36 5.36 0 0 0 2-.9l.4-.3.4.3a5 5 0 0 0 1.8.9 12.42 12.42 0 0 0 3.3.4 9 9 0 0 0 5.1-1.5 8.51 8.51 0 0 0 4 1 12.25 12.25 0 0 0 1.9-.2c3.2-.6 3.6-2.9 3.6-3l.2-1.4a20.59 20.59 0 0 0 7-.2l1.4-.3a14.46 14.46 0 0 0 4.8.9c2.9 0 4.3-1.4 4.8-2.5a.53.53 0 0 1 .2-.3 13.69 13.69 0 0 0 .8-1.4c.5.3.9.6 1.2.8 4.4 2.7 16.1 5.4 24.8 5.4 1 0 2 0 3-.1 11.2-1 17.9-3.5 19.9-7.6 3.4-5.7 3.8-11 1.8-15zm-70.8 18l-.6 3.2c0 .1-.3 1.1-2 1.4a8.6 8.6 0 0 1-1.6.1c-2.2 0-3.3-.9-3.3-1a1 1 0 0 0-1.4 0 6 6 0 0 1-4.3 1.4 9.47 9.47 0 0 1-2.8-.4 3 3 0 0 1-1.1-.6 2.64 2.64 0 0 0-1.6-.7 2.81 2.81 0 0 0-1.5.6 3.1 3.1 0 0 1-1.3.6 21.09 21.09 0 0 1-3.3.4 6.67 6.67 0 0 1-2.8-.5 4.13 4.13 0 0 1-1.8-2.3c-.5-2.6-1.2-7.4-.5-9 1.2-2.7 2.9-3.1 4.2-3.1a21.31 21.31 0 0 1 2.5.3 16.2 16.2 0 0 0 2 .3 2.77 2.77 0 0 0 1.3-.3c.7-.4 1.3-.8 1.8-1.1a5.49 5.49 0 0 1 3.7-1.2h.7a10.78 10.78 0 0 1 4.1 1.1 11.92 11.92 0 0 0 2 .8 4 4 0 0 0 1.5-.1 10 10 0 0 1 1.6-.2h.4a5.53 5.53 0 0 1 4.2 5 47.31 47.31 0 0 1-.1 5.3zm18.3-1.3a2.19 2.19 0 0 1-.3.5c-.2.4-.7 1.4-3 1.4a14.19 14.19 0 0 1-4.4-.9 2.27 2.27 0 0 0-.4-.1h-.2l-1.7.4a16.69 16.69 0 0 1-6.3.1 54.21 54.21 0 0 0 .1-5.7 7.82 7.82 0 0 0-5.6-6.6 2.48 2.48 0 0 0-.9-.1c-.1-.3-.1-.7-.2-1.1a17.25 17.25 0 0 0 3.4-.9c.8-.3 1.6-.5 2.3-.7a32.77 32.77 0 0 1 5.9-.5 20.08 20.08 0 0 1 2.5.1c1.8 5.8 6.3 10.1 9.6 12.6-.3.6-.6 1.1-.8 1.5zm49.5-2.7c-1.6 3.3-7.9 5.5-18.3 6.5-8.8.8-22.3-2.5-26.5-5-2.7-1.6-11.5-7.6-12.3-16.8-.2-3.1 1-6.4 2.3-7.2a6 6 0 0 1 7.5 1c7 6.9 23.6 11.7 33.2 7.6a1 1 0 1 0-.8-1.8c-8 3.5-23.9-.2-31-7.2a8.21 8.21 0 0 0-10-1.3c-2 1.3-3.5 5.4-3.2 9.1a8.81 8.81 0 0 0 .2 1.7c-.6 0-1.3-.1-2-.1a28.47 28.47 0 0 0-6.4.6c-.8.2-1.6.5-2.5.8a15 15 0 0 1-3 .8 70.94 70.94 0 0 1-.5-9.2c0-10.5 4.3-23.4 7.1-31.9.8-2.5 1.5-4.6 2-6.2 2.6-9.3 5.9-26.9 4.9-41.5a59 59 0 0 0-1-7.5 8.87 8.87 0 0 1-.1-1.3l.3-.2c.3.8.5 1.1.4.7a67.48 67.48 0 0 1 2.9 10.8c.4 2 .8 3.8 1.3 5.7a65 65 0 0 1 1.6 7.9c1 5.9 1.9 11.4 5.3 13.9 7 5.1 9.8 13.3 8.7 25.8a96.63 96.63 0 0 1-1.6 11.5l.2.2a1 1 0 0 0-.1 1.4c10.7 12.9 22.5 13 30.2 13a34.51 34.51 0 0 1 5.9.3 8.77 8.77 0 0 1 6.3 4.9c1.9 3.3 1.5 8-1 13zm-101.9-5.5c.5-8.7 1.2-19.7 1.2-20a48.17 48.17 0 0 0 .1-5.1c0-.9-.1-1.8-.1-3.4v-2.2c.1-14.2.1-22.4-1.1-24.4-1.5-2.5-2.7-9.6-3.7-21.2a8.8 8.8 0 0 1-.1-1.4 1.07 1.07 0 0 0-1.1-.9 1 1 0 0 0-.9 1.1c0 .2.1.7.1 1.3.6 7.7 1.7 18.4 3.9 22.1 1 1.6.9 13.1.8 23.3v2.2a33.33 33.33 0 0 0 .1 3.5 44.36 44.36 0 0 1-.1 4.9c0 .2-.6 10.1-1.2 18.4a6 6 0 0 0-3-.7 25.83 25.83 0 0 0-2.9.3 11.55 11.55 0 0 1-1.6.2h-.3c-.7-.4-1.2-.7-1.7-1a7.13 7.13 0 0 0-4.7-1.5h-.8a11.69 11.69 0 0 0-4.9 1.3 5.85 5.85 0 0 1-1.5.6c-.1 0-.5-.1-.8-.1l-.9-.2a18.48 18.48 0 0 0 .1-2.3 86.05 86.05 0 0 0 .7-9.3c0-8.9-3.3-19.3-5.9-27.7-1.5-4.8-2.8-8.9-3.1-11.5-.5-5.1-1.2-9.7-1.9-14-1.8-12.1-3.7-21.9-1-35.4 1.3-10 8.6-17.9 11.5-27.2a1.03 1.03 0 0 0-2-.5 83 83 0 0 1-6 12.8c-6.5 7.2-10.7 18.1-12.1 32.3-.4 3.9-2.2 9.6-5.2 16.3-.7 1.6-2.9 4.1-4.5 6a15.65 15.65 0 0 0-2.1 2.6c-3.6 5.5-4.1 9.4-3 22a118.59 118.59 0 0 0 8.3 34.5 8.42 8.42 0 0 0-1.7 2.8c-2 6.1 0 9.3.9 10.7a1.44 1.44 0 0 1 .2.3c.6 1.2 1.9 2.5 4.8 2.5a17.65 17.65 0 0 0 4.8-.9l1.4.3a18.4 18.4 0 0 0 4.1.4 21 21 0 0 0 4.3-.5l.3 1.6c0 .1.4 2.4 3.6 3a13.66 13.66 0 0 0 1.9.2 8.51 8.51 0 0 0 4-1 8.76 8.76 0 0 0 5.1 1.5 13.47 13.47 0 0 0 3.3-.4 5 5 0 0 0 1.8-.9l.4-.3a1 1 0 0 1 .4.3 6.25 6.25 0 0 0 2 .9 16.7 16.7 0 0 0 3.7.4 8.25 8.25 0 0 0 3.8-.8 6.37 6.37 0 0 0 2.9-3.7c.2-.8 1.5-7.5.4-10.2a6.92 6.92 0 0 0-1-1.9zm-57.6-38.9c-1-12.1-.6-15.6 2.7-20.7a22.34 22.34 0 0 1 2-2.4c1.8-2.1 4-4.6 4.8-6.5 3.1-7 4.9-12.7 5.3-16.9a67.62 67.62 0 0 1 5.4-21.6 18.61 18.61 0 0 0-.8 4.1c-2.3 12.9-.7 24 1.1 35.7.7 4.4 1.3 8.9 1.9 14 .3 2.8 1.6 7 3.2 11.9 2.6 8.3 5.9 18.6 5.8 27.1a73.9 73.9 0 0 1-.6 8.5 10.28 10.28 0 0 1-3.3-.9 24.13 24.13 0 0 0-2.5-.8 36.67 36.67 0 0 0-6.4-.6c-5.2 0-8.5 1-10.6 2.4a110.86 110.86 0 0 1-8-33.3zm24.8 42.9c-.1 1 0 4.3 0 5.5a17.71 17.71 0 0 1-7.6.1l-1.7-.4a1.27 1.27 0 0 0-.6.1 14.19 14.19 0 0 1-4.4.9c-2.3 0-2.9-1.1-3-1.4l-.3-.5c-.8-1.2-2.4-3.8-.7-9 1.5-4.5 8.1-5.2 12-5.2a32.77 32.77 0 0 1 5.9.5c.7.2 1.5.5 2.3.7a17.27 17.27 0 0 0 3.7 1l-.2 1.2a7.51 7.51 0 0 0-5.4 6.5zm31.6 7.8a3.84 3.84 0 0 1-1.8 2.3 6.67 6.67 0 0 1-2.8.5 13.47 13.47 0 0 1-3.3-.4 5.17 5.17 0 0 1-1.3-.6 2.53 2.53 0 0 0-1.5-.6 2.64 2.64 0 0 0-1.6.7 2.38 2.38 0 0 1-1.1.6 14.52 14.52 0 0 1-2.8.4 6.26 6.26 0 0 1-4.3-1.4 1 1 0 0 0-1.4 0 5.09 5.09 0 0 1-3.3 1c-.5 0-1-.1-1.6-.1-1.7-.3-2-1.3-2-1.4l-.6-3.2a46.38 46.38 0 0 1-.1-5.2 5.66 5.66 0 0 1 4.2-5h.4a8.75 8.75 0 0 1 1.6.2 4.21 4.21 0 0 0 1.5.1 5 5 0 0 0 2-.8 9.22 9.22 0 0 1 4.1-1.1h.7a5.67 5.67 0 0 1 3.7 1.2c.5.3 1.1.7 1.8 1.1a2.5 2.5 0 0 0 1.3.3 7.47 7.47 0 0 0 2-.3 21.3 21.3 0 0 1 2.5-.3c1.3 0 3 .4 4.2 3.1.6 1.5 0 6.2-.5 8.9z"/>
</svg>
